<?xml version="1.0" standalone="no"?>
<!DOCTYPE svg PUBLIC "-//W3C//DTD SVG 20010904//EN"
 "http://www.w3.org/TR/2001/REC-SVG-20010904/DTD/svg10.dtd">
<svg version="1.0" xmlns="http://www.w3.org/2000/svg"
 width="62.000000pt" height="90.000000pt" viewBox="0 0 62.000000 90.000000"
 preserveAspectRatio="xMidYMid meet">

<g transform="translate(0.000000,90.000000) scale(0.100000,-0.100000)"
fill="#000000" stroke="none">
<path d="M167 890 c-95 -17 -126 -64 -64 -97 24 -13 65 -18 164 -21 152 -5
183 0 183 28 0 19 -7 20 -139 20 -136 0 -189 11 -113 24 84 14 263 0 283 -22
4 -4 10 -26 14 -49 l6 -41 -98 -7 c-60 -5 -147 -3 -227 5 -148 14 -160 9 -171
-65 -14 -87 46 -107 322 -109 89 0 163 -3 166 -6 3 -3 -6 -108 -18 -235 -29
-278 -21 -265 -162 -265 -97 0 -126 8 -137 35 -3 9 -15 105 -26 213 -11 108
-23 207 -25 220 -6 25 -33 30 -42 6 -3 -8 4 -113 16 -232 24 -238 31 -257 92
-279 44 -15 194 -15 238 0 63 22 68 38 96 307 14 135 29 246 35 248 5 2 21 13
36 24 23 19 26 26 21 65 -5 44 -29 83 -53 83 -7 0 -16 17 -19 38 -10 62 -23
82 -63 99 -43 18 -240 27 -315 13z m143 -215 c63 0 147 2 185 5 l70 5 0 -30
c0 -28 -3 -30 -50 -38 -65 -11 -345 -11 -410 0 -51 8 -64 24 -51 59 5 13 17
14 73 7 38 -4 120 -8 183 -8z"/>
<path d="M330 488 c-31 -15 -66 -22 -112 -22 l-67 -1 4 -35 c3 -19 9 -87 15
-150 20 -216 15 -210 139 -210 57 0 94 5 105 13 16 12 22 45 38 207 10 106 17
199 14 207 -8 20 -85 15 -136 -9z"/>
</g>
</svg>
